<svg width="18" height="22" viewBox="0 0 18 22" fill="none" xmlns="http://www.w3.org/2000/svg">
<path d="M4.42749 21.5788C3.99456 21.2888 3.60768 20.9342 3.28952 20.5233C2.93494 20.1006 2.61334 19.6533 2.31235 19.1915C1.61074 18.1642 1.06306 17.0441 0.680306 15.8594C0.221958 14.485 0 13.1677 0 11.8792C0 10.4403 0.311292 9.18413 0.920131 8.12863C1.36748 7.30539 2.0368 6.61477 2.84217 6.13169C3.62211 5.64517 4.52781 5.37992 5.44382 5.36205C5.76611 5.36205 6.11313 5.40878 6.48146 5.49811C6.74603 5.57301 7.06831 5.69121 7.46206 5.83826C7.96302 6.03136 8.23857 6.14956 8.33203 6.17842C8.62546 6.28562 8.87215 6.33234 9.06594 6.33234C9.21299 6.33234 9.42052 6.28562 9.65622 6.21415C9.78885 6.16742 10.039 6.08496 10.397 5.93172C10.7516 5.80253 11.0306 5.69189 11.2525 5.60943C11.5927 5.50911 11.9218 5.41634 12.2153 5.36961C12.5733 5.31601 12.9272 5.29814 13.2673 5.32632C13.9188 5.36961 14.5132 5.50911 15.0464 5.70907C15.9803 6.08496 16.7355 6.67181 17.2976 7.50604C17.0578 7.6531 16.8393 7.82077 16.6318 8.01043C16.1844 8.40419 15.8085 8.86941 15.5041 9.38822C15.1104 10.0933 14.9097 10.8918 14.9138 11.6965C14.9283 12.6881 15.1825 13.5615 15.6835 14.3167C16.0415 14.8678 16.5136 15.3364 17.0901 15.7233C17.3767 15.9164 17.6234 16.049 17.8598 16.1384C17.7491 16.482 17.6309 16.8146 17.4914 17.1444C17.1726 17.8852 16.7933 18.5937 16.3459 19.263C15.9487 19.8395 15.6374 20.269 15.401 20.5549C15.0327 20.9912 14.6781 21.3245 14.3201 21.5568C13.9263 21.8179 13.4611 21.9574 12.9883 21.9574C12.6661 21.9718 12.3479 21.9285 12.04 21.8426C11.7755 21.7533 11.5137 21.6564 11.256 21.5458C10.9873 21.4241 10.7117 21.3169 10.4293 21.2345C10.0788 21.1417 9.72082 21.0984 9.3628 21.0984C8.99447 21.0984 8.63645 21.1452 8.29973 21.231C8.01318 21.3135 7.73762 21.4097 7.4655 21.5279C7.08274 21.6887 6.82849 21.7966 6.68143 21.8426C6.38801 21.9285 6.08359 21.9821 5.77573 22C5.29952 22 4.8556 21.8639 4.4158 21.5884L4.42749 21.5788ZM10.7083 4.66388C10.0857 4.97517 9.4913 5.10779 8.90101 5.0645C8.80825 4.47009 8.90101 3.86194 9.14771 3.19606C9.36623 2.62708 9.65966 2.11513 10.0637 1.65679C10.4822 1.18057 10.9873 0.786819 11.5563 0.504389C12.161 0.193097 12.7375 0.0247384 13.2886 0C13.3601 0.622583 13.2886 1.23486 13.0598 1.89661C12.8489 2.48346 12.5376 3.02427 12.1438 3.50736C11.7432 3.98357 11.2491 4.37732 10.6904 4.66319L10.7083 4.66388Z" fill="#33312B"/>
</svg>
