<svg xmlns="http://www.w3.org/2000/svg" version="1.1" viewBox="0 0 24 24" width="24.0pt"
  height="24.0pt">
  <path
    d="M 18.80 4.85 C 17.87 5.74 16.93 6.62 15.99 7.50 C 12.38 5.16 8.53 5.93 6.36 9.75 C 5.31 8.90 4.26 8.06 3.17 7.25 C 6.27 1.61 14.24 0.14 18.80 4.85 Z"
    fill="#ff3d00" />
  <path
    d="M 3.17 7.25 C 4.26 8.06 5.31 8.90 6.36 9.75 C 6.29 11.19 6.28 12.63 6.22 14.07 C 5.17 14.92 4.14 15.78 3.09 16.62 C 1.77 13.47 1.74 10.37 3.17 7.25 Z"
    fill="#ffc107" />
  <path
    d="M 12.45 9.73 C 15.47 9.77 18.49 9.78 21.51 9.73 C 22.54 13.33 21.44 16.64 18.88 19.27 C 17.77 18.48 16.66 17.69 15.53 16.91 C 16.24 16.04 16.94 15.17 17.64 14.30 C 15.92 14.28 14.21 14.26 12.49 14.25 C 12.25 12.70 12.23 11.29 12.45 9.73 Z"
    fill="#1976d2" />
  <path
    d="M 6.22 14.07 C 7.23 15.26 8.08 16.70 9.51 17.39 C 11.55 18.07 13.62 17.85 15.53 16.91 C 16.66 17.69 17.77 18.48 18.88 19.27 C 13.88 23.75 6.38 22.45 3.09 16.62 C 4.14 15.78 5.17 14.92 6.22 14.07 Z"
    fill="#4caf50" />
</svg>
