<svg width="48" height="48" viewBox="0 0 48 48" fill="none" xmlns="http://www.w3.org/2000/svg">
<path d="M31 12H36V17H31V12Z" fill="#8A96E5"/>
<path d="M12 12H17V17H12V12Z" fill="#8A96E5"/>
<path d="M12 31H17V36H12V31Z" fill="#8A96E5"/>
<path d="M31 31H36V36H31V31Z" fill="#8A96E5"/>
<path d="M36 12C36 8.8174 34.7357 5.76516 32.4853 3.51472C30.2348 1.26428 27.1826 2.40279e-07 24 0C20.8174 -2.40279e-07 17.7652 1.26428 15.5147 3.51472C13.2643 5.76515 12 8.8174 12 12L16.9958 12C16.9958 10.1424 17.7337 8.36081 19.0473 7.04727C20.3608 5.73372 22.1424 4.99578 24 4.99578C25.8576 4.99578 27.6392 5.73372 28.9527 7.04727C30.2663 8.36082 31.0042 10.1424 31.0042 12H36Z" fill="#8A96E5"/>
<path d="M36 36C39.1826 36 42.2348 34.7357 44.4853 32.4853C46.7357 30.2348 48 27.1826 48 24C48 20.8174 46.7357 17.7652 44.4853 15.5147C42.2348 13.2643 39.1826 12 36 12V16.9956C37.8577 16.9956 39.6393 17.7336 40.9529 19.0471C42.2664 20.3607 43.0044 22.1423 43.0044 24C43.0044 25.8577 42.2664 27.6393 40.9529 28.9529C39.6393 30.2664 37.8577 31.0044 36 31.0044V36Z" fill="#8A96E5"/>
<path d="M12 12C8.8174 12 5.76516 13.2643 3.51472 15.5147C1.26428 17.7652 2.78232e-07 20.8174 0 24C-2.78232e-07 27.1826 1.26428 30.2348 3.51472 32.4853C5.76515 34.7357 8.8174 36 12 36L12 31.0044C10.1423 31.0044 8.36072 30.2664 7.04714 28.9529C5.73356 27.6393 4.9956 25.8577 4.9956 24C4.9956 22.1423 5.73356 20.3607 7.04714 19.0471C8.36072 17.7336 10.1423 16.9956 12 16.9956V12Z" fill="#8A96E5"/>
<path d="M12 36C12 39.1826 13.2643 42.2348 15.5147 44.4853C17.7652 46.7357 20.8174 48 24 48C27.1826 48 30.2348 46.7357 32.4853 44.4853C34.7357 42.2348 36 39.1826 36 36H31.0044C31.0044 37.8577 30.2664 39.6393 28.9529 40.9529C27.6393 42.2664 25.8577 43.0044 24 43.0044C22.1423 43.0044 20.3607 42.2664 19.0471 40.9529C17.7336 39.6393 16.9956 37.8577 16.9956 36H12Z" fill="#8A96E5"/>
<path d="M36 24C36 30.6274 30.6274 36 24 36C17.3726 36 12 30.6274 12 24C12 17.3726 17.3726 12 24 12C30.6274 12 36 17.3726 36 24ZM18.24 24C18.24 27.1812 20.8188 29.76 24 29.76C27.1812 29.76 29.76 27.1812 29.76 24C29.76 20.8188 27.1812 18.24 24 18.24C20.8188 18.24 18.24 20.8188 18.24 24Z" fill="white"/>
</svg>
